HIERARCHY
ROOT hip
{
  OFFSET 0 0 0
  CHANNELS 6 Xposition Yposition Zposition Zrotation Yrotation Xrotation
  JOINT abdomen
  {
    OFFSET 0 20.6881 -0.73152
    CHANNELS 3 Zrotation Xrotation Yrotation
    JOINT chest
    {
      OFFSET 0 11.7043 -0.48768
      CHANNELS 3 Zrotation Xrotation Yrotation
      JOINT neck
      {
        OFFSET 0 22.1894 -2.19456
        CHANNELS 3 Zrotation Xrotation Yrotation
        JOINT head
        {
          OFFSET -0.24384 7.07133 1.2192
          CHANNELS 3 Zrotation Xrotation Yrotation
          JOINT leftEye
          {
            OFFSET 4.14528 8.04674 8.04672
            CHANNELS 3 Zrotation Xrotation Yrotation
            End Site
            {
              OFFSET 1 0 0
            }
          }
          JOINT rightEye
          {
            OFFSET -3.6576 8.04674 8.04672
            CHANNELS 3 Zrotation Xrotation Yrotation
            End Site
            {
              OFFSET 1 0 0
            }
          }
        }
      }
      JOINT rCollar
      {
        OFFSET -2.68224 19.2634 -4.8768
        CHANNELS 3 Zrotation Xrotation Yrotation
        JOINT rShldr
        {
          OFFSET -8.77824 -1.95073 1.46304
          CHANNELS 3 Zrotation Xrotation Yrotation
          JOINT rForeArm
          {
            OFFSET -28.1742 -1.7115 0.48768
            CHANNELS 3 Zrotation Xrotation Yrotation
            JOINT rHand
            {
              OFFSET -22.5879 0.773209 7.07136
              CHANNELS 3 Zrotation Xrotation Yrotation
              JOINT rThumb1
              {
                OFFSET -1.2192 -0.487915 3.41376
                CHANNELS 3 Zrotation Xrotation Yrotation
                JOINT rThumb2
                {
                  OFFSET -3.37035 -0.52449 3.41376
                  CHANNELS 3 Zrotation Xrotation Yrotation
                  End Site
                  {
                    OFFSET -1.78271 -1.18214 1.43049
                  }
                }
              }
              JOINT rIndex1
              {
                OFFSET -7.75947 0.938293 5.60832
                CHANNELS 3 Zrotation Xrotation Yrotation
                JOINT rIndex2
                {
                  OFFSET -2.54057 -0.884171 1.56538
                  CHANNELS 3 Zrotation Xrotation Yrotation
                  End Site
                  {
                    OFFSET -1.62519 -0.234802 1.16502
                  }
                }
              }
              JOINT rMid1
              {
                OFFSET -8.24714 1.18213 3.41376
                CHANNELS 3 Zrotation Xrotation Yrotation
                JOINT rMid2
                {
                  OFFSET -3.10165 -0.590103 1.0647
                  CHANNELS 3 Zrotation Xrotation Yrotation
                  End Site
                  {
                    OFFSET -2.48547 -0.328903 0.83742
                  }
                }
              }
              JOINT rRing1
              {
                OFFSET -8.82822 0.546677 1.51678
                CHANNELS 3 Zrotation Xrotation Yrotation
                JOINT rRing2
                {
                  OFFSET -2.60934 -0.819778 -0.0198488
                  CHANNELS 3 Zrotation Xrotation Yrotation
                  End Site
                  {
                    OFFSET -2.33842 -0.294052 0.168128
                  }
                }
              }
              JOINT rPinky1
              {
                OFFSET -8.27202 -0.0477905 -0.4584
                CHANNELS 3 Zrotation Xrotation Yrotation
                JOINT rPinky2
                {
                  OFFSET -1.82734 -0.647385 -0.700984
                  CHANNELS 3 Zrotation Xrotation Yrotation
                  End Site
                  {
                    OFFSET -1.69225 -0.51767 -0.607171
                  }
                }
              }
            }
          }
        }
      }
      JOINT lCollar
      {
        OFFSET 2.68224 19.2634 -4.8768
        CHANNELS 3 Zrotation Xrotation Yrotation
        JOINT lShldr
        {
          OFFSET 8.77824 -1.95073 1.46304
          CHANNELS 3 Zrotation Xrotation Yrotation
          JOINT lForeArm
          {
            OFFSET 28.1742 -1.7115 0.48768
            CHANNELS 3 Zrotation Xrotation Yrotation
            JOINT lHand
            {
              OFFSET 22.5879 0.773209 7.07136
              CHANNELS 3 Zrotation Xrotation Yrotation
              JOINT lThumb1
              {
                OFFSET 1.2192 -0.487915 3.41376
                CHANNELS 3 Zrotation Xrotation Yrotation
                JOINT lThumb2
                {
                  OFFSET 3.37035 -0.52449 3.41376
                  CHANNELS 3 Zrotation Xrotation Yrotation
                  End Site
                  {
                    OFFSET 1.78271 -1.18214 1.43049
                  }
                }
              }
              JOINT lIndex1
              {
                OFFSET 7.75947 0.938293 5.60832
                CHANNELS 3 Zrotation Xrotation Yrotation
                JOINT lIndex2
                {
                  OFFSET 2.54057 -0.884171 1.56538
                  CHANNELS 3 Zrotation Xrotation Yrotation
                  End Site
                  {
                    OFFSET 1.62519 -0.234802 1.16502
                  }
                }
              }
              JOINT lMid1
              {
                OFFSET 8.24714 1.18213 3.41376
                CHANNELS 3 Zrotation Xrotation Yrotation
                JOINT lMid2
                {
                  OFFSET 3.10165 -0.590103 1.0647
                  CHANNELS 3 Zrotation Xrotation Yrotation
                  End Site
                  {
                    OFFSET 2.48547 -0.328903 0.83742
                  }
                }
              }
              JOINT lRing1
              {
                OFFSET 8.82822 0.546677 1.51678
                CHANNELS 3 Zrotation Xrotation Yrotation
                JOINT lRing2
                {
                  OFFSET 2.60934 -0.819778 -0.0198488
                  CHANNELS 3 Zrotation Xrotation Yrotation
                  End Site
                  {
                    OFFSET 2.33842 -0.294052 0.168128
                  }
                }
              }
              JOINT lPinky1
              {
                OFFSET 8.27202 -0.0477905 -0.4584
                CHANNELS 3 Zrotation Xrotation Yrotation
                JOINT lPinky2
                {
                  OFFSET 1.82734 -0.647385 -0.700984
                  CHANNELS 3 Zrotation Xrotation Yrotation
                  End Site
                  {
                    OFFSET 1.69225 -0.51767 -0.607171
                  }
                }
              }
            }
          }
        }
      }
    }
  }
  JOINT rButtock
  {
    OFFSET -8.77824 4.35084 1.2192
    CHANNELS 3 Zrotation Xrotation Yrotation
    JOINT rThigh
    {
      OFFSET 0 -1.70687 -2.19456
      CHANNELS 3 Zrotation Xrotation Yrotation
      JOINT rShin
      {
        OFFSET 0 -36.8199 0.73152
        CHANNELS 3 Zrotation Xrotation Yrotation
        JOINT rFoot
        {
          OFFSET 0.73152 -45.1104 -5.12064
          CHANNELS 3 Zrotation Xrotation Yrotation
          End Site
          {
            OFFSET -1.1221 -3.69964 12.103
          }
        }
      }
    }
  }
  JOINT lButtock
  {
    OFFSET 8.77824 4.35084 1.2192
    CHANNELS 3 Zrotation Xrotation Yrotation
    JOINT lThigh
    {
      OFFSET 0 -1.70687 -2.19456
      CHANNELS 3 Zrotation Xrotation Yrotation
      JOINT lShin
      {
        OFFSET 0 -36.8199 0.73152
        CHANNELS 3 Zrotation Xrotation Yrotation
        JOINT lFoot
        {
          OFFSET -0.73152 -45.1104 -5.12064
          CHANNELS 3 Zrotation Xrotation Yrotation
          End Site
          {
            OFFSET 1.1221 -3.69964 12.103
          }
        }
      }
    }
  }
}
MOTION
Frames:	4
Frame Time:	0.03333
0.039388611912727356 62.068015336990356 0.09172987192869186 -4.172788619995117 1.6901828050613403 4.103082656860352 -2.4273476600646973 14.934245109558105 3.732710599899292 2.711047410964966 -9.677886009216309 1.2039319276809692 -5.148634433746338 15.007171630859375 -3.580432176589966 8.777946472167969 -23.948312759399414 -4.974096298217773 0.04558078572154045 -0.006949073169380426 0.009670083411037922 -0.0026359183248132467 0.002699251053854823 0.03166428953409195 0.07288578152656555 0.042666081339120865 0.006918845232576132 42.16743850708008 36.00255584716797 19.14628028869629 -28.010929107666016 -29.062828063964844 65.16339874267578 -0.22650939226150513 -13.690917015075684 -1.995067834854126 -0.04741143435239792 -0.04074094071984291 0.04909396171569824 -0.036814067512750626 -0.012872888706624508 -0.021147307008504868 0.02596668154001236 0.038355279713869095 -0.02841080352663994 7.687030792236328 5.441997528076172 0.4230346381664276 -0.014955348335206509 0.010072589851915836 -0.047281209379434586 2.9792778491973877 0.9639437198638916 0.10287334769964218 0.015312290750443935 0.05093669146299362 -0.007847784087061882 10.281244277954102 0.6973554491996765 -0.021855002269148827 0.009108024649322033 -0.08266786485910416 -0.022570783272385597 2.2043304443359375 -0.7140823006629944 -0.21799108386039734 -0.01160410512238741 0.04755367338657379 0.041908081620931625 -48.509490966796875 37.31044387817383 -30.094064712524414 27.15016746520996 -26.39301300048828 -61.3491325378418 0.26711615920066833 -14.209512710571289 1.9166854619979858 -0.05784010514616966 0.024611733853816986 -0.046513814479112625 0.10603872686624527 0.028774037957191467 -0.07140006870031357 0.024292703717947006 0.00789935328066349 -0.027311304584145546 -7.711162090301514 5.490813255310059 -0.4311719536781311 -0.08480868488550186 -0.04328411817550659 0.04906385764479637 -2.9405970573425293 0.9517859816551208 -0.04622771963477135 0.009246155619621277 0.009890642017126083 0.01977315917611122 -10.225431442260742 0.6875073909759521 0.012806919403374195 -0.03517763689160347 0.030744897201657295 0.01223681028932333 -2.204336166381836 -0.748576283454895 0.18299350142478943 0.03881615400314331 -0.10563084483146667 -0.0010790345259010792 -24.768423080444336 -40.335880279541016 -20.4564266204834 -1.4810692071914673 65.75886535644531 2.4999897480010986 -3.824327230453491 -10.955671310424805 -10.029587745666504 -0.02850688435137272 0.06218019872903824 -0.021984785795211792 30.081554412841797 -40.075111389160156 23.017841339111328 1.6031619310379028 66.0602798461914 -2.7418951988220215 4.09326171875 -10.904884338378906 13.302658081054688
0.09231213480234146 62.927812337875366 -0.05260296165943146 -4.138689994812012 1.0834879875183105 3.8630125522613525 -2.420466184616089 14.437906265258789 3.5170047283172607 2.7840232849121094 -9.5360689163208 1.1207451820373535 -5.230358123779297 15.122840881347656 -3.785072088241577 8.773726463317871 -23.8414306640625 -5.421796798706055 0.11828581243753433 -0.015456615947186947 -0.043474286794662476 0.008551500737667084 0.09577985107898712 0.019924629479646683 0.10652025043964386 0.028527500107884407 0.030115649104118347 44.08037185668945 36.619834899902344 18.029050827026367 -27.302291870117188 -28.263668060302734 64.91606903076172 -0.2008085399866104 -12.437177658081055 -1.7045464515686035 -0.05747557803988457 0.0044425129890441895 0.043283164501190186 -0.03838749974966049 -0.02810068055987358 -0.049210138618946075 0.062411829829216 -0.022272780537605286 -0.020185871049761772 7.7970380783081055 5.597477436065674 0.43934622406959534 -0.011503783985972404 -0.08488023281097412 -0.1206359714269638 2.9217612743377686 1.0399080514907837 0.10739576071500778 0.0406847782433033 0.027960550040006638 0.00892404094338417 10.479856491088867 0.7417929768562317 -0.06857238709926605 0.009127624332904816 -0.036732666194438934 -0.003215640550479293 2.1823506355285645 -0.7252300977706909 -0.21145455539226532 0.05085132643580437 0.04514462128281593 0.04654105380177498 -50.06483459472656 37.549808502197266 -29.64307403564453 26.517257690429688 -25.50564193725586 -60.52580642700195 0.2430996298789978 -12.218733787536621 1.8746579885482788 0.012439554557204247 0.0006016555125825107 0.03206031396985054 0.1562194973230362 0.13154926896095276 -0.09572367370128632 0.030293118208646774 -0.05799540504813194 -0.06421070545911789 -7.748687744140625 5.4775390625 -0.4681790769100189 -0.1441422700881958 -0.09143555909395218 0.05246279761195183 -2.995746612548828 0.8865707516670227 0.08092926442623138 -0.01246234867721796 -0.01737922616302967 0.11594755202531815 -10.384356498718262 0.6919153332710266 0.0062320479191839695 0.02621554024517536 0.04473495110869408 0.03541939705610275 -2.343348979949951 -0.7158060073852539 0.1775941550731659 0.02473093941807747 -0.008956577628850937 0.04914548248052597 -23.585041046142578 -39.73072814941406 -19.186355590820312 -1.5480360984802246 65.02949523925781 2.609095811843872 -3.754660129547119 -10.842872619628906 -10.245274543762207 -0.05571334809064865 0.1271829754114151 -0.038262829184532166 29.569730758666992 -39.665321350097656 21.998701095581055 1.482825756072998 65.94268035888672 -2.7287633419036865 4.178827285766602 -10.566672325134277 13.154977798461914
0.4683898761868477 63.820880651474 0.29866723343729973 -10.157247543334961 -12.747276306152344 6.420406818389893 -1.382001280784607 21.047203063964844 3.6761953830718994 2.5276119709014893 -12.131717681884766 1.163948893547058 -3.9835901260375977 13.68160629272461 0.19285473227500916 6.951755046844482 -30.349376678466797 2.5985560417175293 -0.14230860769748688 0.42320162057876587 0.16645914316177368 0.3108123242855072 0.05977199599146843 -0.15795548260211945 -0.07081881910562515 0.3935384750366211 0.38536256551742554 8.772392272949219 25.802988052368164 66.22835540771484 -27.73469352722168 -28.312606811523438 63.6391716003418 0.05990836024284363 -6.995762825012207 -0.4979780316352844 0.04415671527385712 -0.13344989717006683 -0.7749731540679932 -0.22127561271190643 -0.032131537795066833 -0.3595035672187805 0.2355702519416809 -0.04783445969223976 -0.14198827743530273 8.157495498657227 5.478610038757324 0.7227174043655396 0.19434361159801483 0.04040330648422241 -0.4714342951774597 3.133624315261841 0.9585669636726379 -0.08264418691396713 0.2216973453760147 -0.07257577031850815 -0.27028191089630127 10.378819465637207 0.8062551617622375 -0.13787035644054413 0.3708493709564209 -0.0495789498090744 -0.3112650513648987 2.0302975177764893 -0.6126497983932495 -0.21850594878196716 -0.05413241311907768 0.4764609634876251 -0.31633374094963074 2.1227927207946777 13.023639678955078 -108.8861083984375 27.944303512573242 -36.95490646362305 -78.7327651977539 0.488773912191391 -10.643364906311035 1.038866400718689 -0.10961189866065979 0.25876641273498535 0.3802739381790161 0.31857481598854065 0.5430422425270081 0.156540647149086 0.22242294251918793 -0.14638063311576843 -0.03938773646950722 -8.232816696166992 5.676885604858398 -0.5443869233131409 -0.15035533905029297 0.011680038645863533 -0.26728367805480957 -3.1180055141448975 0.8622817397117615 0.0016774398973211646 -0.48103582859039307 -0.21585902571678162 0.05266778916120529 -10.266841888427734 0.6347271800041199 0.03442415967583656 -0.08985309302806854 -0.24765989184379578 0.1127946749329567 -2.18727707862854 -0.685958206653595 0.01146050076931715 -0.053726475685834885 -0.19091515243053436 -0.21382005512714386 -22.77146339416504 -56.91986846923828 -26.527549743652344 -12.642783164978027 84.02659606933594 12.857967376708984 -5.94056510925293 -8.476916313171387 -18.902210235595703 0.08238542824983597 -0.0750439390540123 -0.13858357071876526 19.661802291870117 -53.809234619140625 24.150449752807617 6.349239349365234 79.848388671875 -7.631449222564697 6.328670501708984 -8.956504821777344 19.06928825378418
0.8831676095724106 61.29710674285889 0.06675021722912788 -9.290510177612305 -14.628782272338867 8.82684326171875 -2.250403881072998 18.361167907714844 4.766719341278076 2.3222920894622803 -11.110703468322754 1.5413538217544556 -3.9618566036224365 11.638411521911621 4.463649272918701 5.620940208435059 -28.461612701416016 8.659514427185059 -0.8468466997146606 -0.1633293181657791 0.2446908801794052 0.38050132989883423 -0.16207252442836761 -0.5573062896728516 -0.015358838252723217 -0.012432790361344814 0.05278865620493889 -1.2170801162719727 29.60481071472168 83.25108337402344 -25.035768508911133 -20.793611526489258 51.964298248291016 -0.2969682216644287 8.35461139678955 1.82449471950531 0.3422097861766815 0.5531136989593506 -0.9623275995254517 -0.23345841467380524 -1.0440599918365479 -0.2378833293914795 -0.4203437268733978 -1.0428338050842285 -0.11638890951871872 7.809980869293213 4.676513195037842 0.8601058125495911 0.6959811449050903 0.5785137414932251 -0.4323267340660095 2.3781025409698486 1.458064079284668 -0.02780972793698311 -0.12051276117563248 0.04485570639371872 -0.442842572927475 9.904950141906738 0.8094652891159058 -0.40730100870132446 0.2378210425376892 0.44912418723106384 -0.0643303245306015 2.4567980766296387 -1.014824390411377 -0.22234457731246948 0.28866297006607056 0.5415312647819519 -0.19551225006580353 6.3161115646362305 -10.225404739379883 -128.5045623779297 27.789636611938477 -38.89394760131836 -81.68428039550781 0.582365095615387 12.150355339050293 -3.4009416103363037 0.4588003158569336 -0.04420646280050278 -0.0573771595954895 0.5574619174003601 0.3053918778896332 -0.19588233530521393 -0.4737958312034607 0.2728675603866577 -0.6446487307548523 -7.164719581604004 5.401998996734619 -0.3249562382698059 0.2957880198955536 0.20533624291419983 -0.6034972071647644 -2.7832295894622803 0.586931586265564 -0.20723894238471985 0.1641642451286316 -0.40541699528694153 -0.17587511241436005 -9.461676597595215 0.3925115764141083 0.4363631010055542 -0.19882424175739288 -0.5701916813850403 -0.1579793393611908 -2.8040263652801514 -0.8561711311340332 -0.05173736810684204 -0.34545838832855225 -0.31114622950553894 0.038807839155197144 -10.44884204864502 -46.07924270629883 -14.30859375 -7.049774646759033 76.98345947265625 7.504075527191162 -4.868679523468018 -6.089428424835205 -18.427356719970703 -0.5363581776618958 -0.15791229903697968 -0.400966078042984 19.66684913635254 -59.383731842041016 27.636394500732422 9.402521133422852 81.4389877319336 -10.270827293395996 4.903151988983154 -0.7197551727294922 18.5343074798584
